<mxfile host="app.diagrams.net" modified="2021-10-22T00:40:55.994Z" agent="5.0 (Windows NT 10.0; Win64; x64) AppleWebKit/537.36 (KHTML, like Gecko) Chrome/94.0.4606.81 Safari/537.36 Edg/94.0.992.50" etag="UPQu1Fg3Jo37rQSEB0lG" version="15.5.2" type="github">
  <diagram name="Page-1" id="822b0af5-4adb-64df-f703-e8dfc1f81529">
    <mxGraphModel dx="2830" dy="1762" grid="1" gridSize="10" guides="1" tooltips="1" connect="1" arrows="1" fold="1" page="1" pageScale="1" pageWidth="1100" pageHeight="850" background="none" math="0" shadow="0">
      <root>
        <mxCell id="0" />
        <mxCell id="1" parent="0" />
        <mxCell id="RHi5AttprhNM431IDmTa-27" style="rounded=0;orthogonalLoop=1;jettySize=auto;html=1;entryX=0;entryY=0.5;entryDx=0;entryDy=0;dashed=1;fontSize=18;startArrow=classic;startFill=1;" edge="1" parent="1" source="7d933b09d9755ecc-17" target="RHi5AttprhNM431IDmTa-28">
          <mxGeometry relative="1" as="geometry">
            <mxPoint x="1450.0000000000045" y="255" as="targetPoint" />
          </mxGeometry>
        </mxCell>
        <mxCell id="RHi5AttprhNM431IDmTa-31" style="edgeStyle=none;rounded=0;orthogonalLoop=1;jettySize=auto;html=1;entryX=0;entryY=0.5;entryDx=0;entryDy=0;entryPerimeter=0;dashed=1;fontSize=18;startArrow=classic;startFill=1;" edge="1" parent="1" source="7d933b09d9755ecc-17" target="RHi5AttprhNM431IDmTa-29">
          <mxGeometry relative="1" as="geometry" />
        </mxCell>
        <mxCell id="RHi5AttprhNM431IDmTa-32" style="edgeStyle=none;rounded=0;orthogonalLoop=1;jettySize=auto;html=1;dashed=1;fontSize=18;startArrow=classic;startFill=1;" edge="1" parent="1" source="7d933b09d9755ecc-17" target="RHi5AttprhNM431IDmTa-30">
          <mxGeometry relative="1" as="geometry" />
        </mxCell>
        <mxCell id="7d933b09d9755ecc-17" value="&lt;font style=&quot;font-size: 18px&quot;&gt;上位机&lt;/font&gt;" style="verticalLabelPosition=bottom;aspect=fixed;html=1;verticalAlign=top;strokeColor=none;shape=mxgraph.citrix.tower_server;rounded=0;shadow=0;comic=0;fontFamily=Verdana;fontSize=18;" parent="1" vertex="1">
          <mxGeometry x="1250" y="217.5" width="65" height="85" as="geometry" />
        </mxCell>
        <mxCell id="RHi5AttprhNM431IDmTa-5" style="edgeStyle=orthogonalEdgeStyle;rounded=0;orthogonalLoop=1;jettySize=auto;html=1;fontSize=18;" edge="1" parent="1" source="RHi5AttprhNM431IDmTa-1" target="RHi5AttprhNM431IDmTa-4">
          <mxGeometry relative="1" as="geometry" />
        </mxCell>
        <mxCell id="RHi5AttprhNM431IDmTa-1" value="传感器" style="verticalLabelPosition=bottom;sketch=0;aspect=fixed;html=1;verticalAlign=top;strokeColor=none;align=center;outlineConnect=0;shape=mxgraph.citrix.xenapp_services;fontSize=18;" vertex="1" parent="1">
          <mxGeometry x="250" y="30" width="76" height="90" as="geometry" />
        </mxCell>
        <mxCell id="RHi5AttprhNM431IDmTa-14" style="edgeStyle=orthogonalEdgeStyle;rounded=0;orthogonalLoop=1;jettySize=auto;html=1;entryX=0;entryY=0.5;entryDx=0;entryDy=0;fontSize=18;curved=1;dashed=1;startArrow=classic;startFill=1;" edge="1" parent="1" source="RHi5AttprhNM431IDmTa-4" target="RHi5AttprhNM431IDmTa-12">
          <mxGeometry relative="1" as="geometry" />
        </mxCell>
        <mxCell id="RHi5AttprhNM431IDmTa-20" value="wireless" style="edgeLabel;html=1;align=center;verticalAlign=middle;resizable=0;points=[];fontSize=18;" vertex="1" connectable="0" parent="RHi5AttprhNM431IDmTa-14">
          <mxGeometry x="0.3666" y="20" relative="1" as="geometry">
            <mxPoint as="offset" />
          </mxGeometry>
        </mxCell>
        <mxCell id="RHi5AttprhNM431IDmTa-4" value="&lt;font style=&quot;font-size: 18px&quot;&gt;ZigBee终端-&lt;b style=&quot;font-size: 18px;&quot;&gt;1&lt;/b&gt;&lt;/font&gt;" style="image;html=1;image=img/lib/clip_art/networking/Print_Server_Wireless_128x128.png;fontSize=18;" vertex="1" parent="1">
          <mxGeometry x="350" y="35" width="80" height="80" as="geometry" />
        </mxCell>
        <mxCell id="RHi5AttprhNM431IDmTa-6" style="edgeStyle=orthogonalEdgeStyle;rounded=0;orthogonalLoop=1;jettySize=auto;html=1;fontSize=18;" edge="1" parent="1" source="RHi5AttprhNM431IDmTa-7" target="RHi5AttprhNM431IDmTa-8">
          <mxGeometry relative="1" as="geometry" />
        </mxCell>
        <mxCell id="RHi5AttprhNM431IDmTa-7" value="" style="verticalLabelPosition=bottom;sketch=0;aspect=fixed;html=1;verticalAlign=top;strokeColor=none;align=center;outlineConnect=0;shape=mxgraph.citrix.xenapp_services;fontSize=18;" vertex="1" parent="1">
          <mxGeometry x="190" y="250" width="76" height="90" as="geometry" />
        </mxCell>
        <mxCell id="RHi5AttprhNM431IDmTa-8" value="&lt;font style=&quot;font-size: 18px&quot;&gt;ZigBee终端-&lt;b style=&quot;font-size: 18px;&quot;&gt;2&lt;/b&gt;&lt;/font&gt;" style="image;html=1;image=img/lib/clip_art/networking/Print_Server_Wireless_128x128.png;fontSize=18;" vertex="1" parent="1">
          <mxGeometry x="290" y="255" width="80" height="80" as="geometry" />
        </mxCell>
        <mxCell id="RHi5AttprhNM431IDmTa-9" style="edgeStyle=orthogonalEdgeStyle;rounded=0;orthogonalLoop=1;jettySize=auto;html=1;fontSize=18;" edge="1" parent="1" source="RHi5AttprhNM431IDmTa-10" target="RHi5AttprhNM431IDmTa-11">
          <mxGeometry relative="1" as="geometry" />
        </mxCell>
        <mxCell id="RHi5AttprhNM431IDmTa-10" value="" style="verticalLabelPosition=bottom;sketch=0;aspect=fixed;html=1;verticalAlign=top;strokeColor=none;align=center;outlineConnect=0;shape=mxgraph.citrix.xenapp_services;fontSize=18;" vertex="1" parent="1">
          <mxGeometry x="230" y="510" width="76" height="90" as="geometry" />
        </mxCell>
        <mxCell id="RHi5AttprhNM431IDmTa-11" value="&lt;div style=&quot;text-align: left; font-size: 18px;&quot;&gt;&lt;span style=&quot;font-size: 18px&quot;&gt;ZigBee终端-&lt;font color=&quot;#111111&quot; face=&quot;microsoft yahei, arial, helvetica, sans-serif&quot; style=&quot;font-size: 18px;&quot;&gt;&lt;span style=&quot;background-color: rgb(252, 252, 252); font-size: 18px;&quot;&gt;&lt;b style=&quot;font-size: 18px;&quot;&gt;65535&lt;/b&gt;&lt;/span&gt;&lt;/font&gt;&lt;/span&gt;&lt;/div&gt;" style="image;html=1;image=img/lib/clip_art/networking/Print_Server_Wireless_128x128.png;fontSize=18;" vertex="1" parent="1">
          <mxGeometry x="330" y="515" width="80" height="80" as="geometry" />
        </mxCell>
        <mxCell id="RHi5AttprhNM431IDmTa-19" style="rounded=0;orthogonalLoop=1;jettySize=auto;html=1;dashed=1;fontSize=18;startArrow=classic;startFill=1;" edge="1" parent="1" source="RHi5AttprhNM431IDmTa-12" target="RHi5AttprhNM431IDmTa-18">
          <mxGeometry relative="1" as="geometry" />
        </mxCell>
        <mxCell id="RHi5AttprhNM431IDmTa-12" value="&lt;font style=&quot;font-size: 18px&quot;&gt;ZigBee路由&lt;/font&gt;" style="image;html=1;image=img/lib/clip_art/networking/Print_Server_Wireless_128x128.png;fontSize=18;" vertex="1" parent="1">
          <mxGeometry x="490" y="220" width="80" height="80" as="geometry" />
        </mxCell>
        <mxCell id="RHi5AttprhNM431IDmTa-17" style="edgeStyle=orthogonalEdgeStyle;curved=1;rounded=0;orthogonalLoop=1;jettySize=auto;html=1;exitX=0.5;exitY=0;exitDx=0;exitDy=0;dashed=1;fontSize=18;startArrow=classic;startFill=1;" edge="1" parent="1" source="RHi5AttprhNM431IDmTa-13" target="RHi5AttprhNM431IDmTa-12">
          <mxGeometry relative="1" as="geometry" />
        </mxCell>
        <mxCell id="RHi5AttprhNM431IDmTa-23" value="wireless" style="edgeLabel;html=1;align=center;verticalAlign=middle;resizable=0;points=[];fontSize=18;" vertex="1" connectable="0" parent="RHi5AttprhNM431IDmTa-17">
          <mxGeometry x="0.3177" y="-9" relative="1" as="geometry">
            <mxPoint as="offset" />
          </mxGeometry>
        </mxCell>
        <mxCell id="RHi5AttprhNM431IDmTa-13" value="&lt;font style=&quot;font-size: 18px&quot;&gt;ZigBee路由&lt;/font&gt;" style="image;html=1;image=img/lib/clip_art/networking/Print_Server_Wireless_128x128.png;fontSize=18;" vertex="1" parent="1">
          <mxGeometry x="540" y="500" width="80" height="80" as="geometry" />
        </mxCell>
        <mxCell id="RHi5AttprhNM431IDmTa-15" style="edgeStyle=orthogonalEdgeStyle;rounded=0;orthogonalLoop=1;jettySize=auto;html=1;entryX=0;entryY=0.5;entryDx=0;entryDy=0;fontSize=18;curved=1;dashed=1;exitX=1;exitY=0.5;exitDx=0;exitDy=0;startArrow=classic;startFill=1;" edge="1" parent="1" source="RHi5AttprhNM431IDmTa-8">
          <mxGeometry relative="1" as="geometry">
            <mxPoint x="230" y="185" as="sourcePoint" />
            <mxPoint x="500" y="270" as="targetPoint" />
          </mxGeometry>
        </mxCell>
        <mxCell id="RHi5AttprhNM431IDmTa-21" value="wireless" style="edgeLabel;html=1;align=center;verticalAlign=middle;resizable=0;points=[];fontSize=18;" vertex="1" connectable="0" parent="RHi5AttprhNM431IDmTa-15">
          <mxGeometry x="-0.0881" y="5" relative="1" as="geometry">
            <mxPoint as="offset" />
          </mxGeometry>
        </mxCell>
        <mxCell id="RHi5AttprhNM431IDmTa-16" style="edgeStyle=orthogonalEdgeStyle;rounded=0;orthogonalLoop=1;jettySize=auto;html=1;fontSize=18;curved=1;dashed=1;exitX=0.5;exitY=0;exitDx=0;exitDy=0;entryX=-0.012;entryY=0.62;entryDx=0;entryDy=0;entryPerimeter=0;startArrow=classic;startFill=1;" edge="1" parent="1" source="RHi5AttprhNM431IDmTa-11" target="RHi5AttprhNM431IDmTa-13">
          <mxGeometry relative="1" as="geometry">
            <mxPoint x="360" y="580" as="sourcePoint" />
            <mxPoint x="640" y="505" as="targetPoint" />
          </mxGeometry>
        </mxCell>
        <mxCell id="RHi5AttprhNM431IDmTa-22" value="wireless" style="edgeLabel;html=1;align=center;verticalAlign=middle;resizable=0;points=[];fontSize=18;" vertex="1" connectable="0" parent="RHi5AttprhNM431IDmTa-16">
          <mxGeometry x="0.1746" y="-14" relative="1" as="geometry">
            <mxPoint as="offset" />
          </mxGeometry>
        </mxCell>
        <mxCell id="RHi5AttprhNM431IDmTa-25" style="edgeStyle=orthogonalEdgeStyle;curved=1;rounded=0;orthogonalLoop=1;jettySize=auto;html=1;dashed=1;fontSize=18;startArrow=classic;startFill=1;" edge="1" parent="1" source="RHi5AttprhNM431IDmTa-18" target="RHi5AttprhNM431IDmTa-24">
          <mxGeometry relative="1" as="geometry" />
        </mxCell>
        <mxCell id="RHi5AttprhNM431IDmTa-18" value="&lt;span style=&quot;background-color: rgb(255 , 204 , 204)&quot;&gt;2.ARM数据传输采集仪&lt;br style=&quot;font-size: 18px&quot;&gt;（集成ZigBee协调器）&lt;/span&gt;" style="verticalLabelPosition=bottom;sketch=0;aspect=fixed;html=1;verticalAlign=top;strokeColor=#b85450;align=center;outlineConnect=0;shape=mxgraph.citrix.netscaler_vpx;fontSize=18;fillColor=#f8cecc;" vertex="1" parent="1">
          <mxGeometry x="870" y="242" width="97" height="36" as="geometry" />
        </mxCell>
        <mxCell id="RHi5AttprhNM431IDmTa-26" value="" style="edgeStyle=orthogonalEdgeStyle;curved=1;rounded=0;orthogonalLoop=1;jettySize=auto;html=1;dashed=1;fontSize=18;startArrow=classic;startFill=1;" edge="1" parent="1" source="RHi5AttprhNM431IDmTa-24" target="7d933b09d9755ecc-17">
          <mxGeometry relative="1" as="geometry" />
        </mxCell>
        <mxCell id="RHi5AttprhNM431IDmTa-24" value="传输网络" style="image;html=1;image=img/lib/clip_art/networking/Cloud_128x128.png;fontSize=18;" vertex="1" parent="1">
          <mxGeometry x="1070" y="220" width="80" height="80" as="geometry" />
        </mxCell>
        <mxCell id="RHi5AttprhNM431IDmTa-28" value="平板" style="image;html=1;image=img/lib/clip_art/computers/iPad_128x128.png;fontSize=18;" vertex="1" parent="1">
          <mxGeometry x="1482" y="97" width="80" height="80" as="geometry" />
        </mxCell>
        <mxCell id="RHi5AttprhNM431IDmTa-29" value="手机" style="verticalLabelPosition=bottom;html=1;verticalAlign=top;align=center;strokeColor=none;fillColor=#00BEF2;shape=mxgraph.azure.mobile;pointerEvents=1;fontSize=18;" vertex="1" parent="1">
          <mxGeometry x="1504.5" y="235" width="35" height="50" as="geometry" />
        </mxCell>
        <mxCell id="RHi5AttprhNM431IDmTa-30" value="计算机" style="points=[];aspect=fixed;html=1;align=center;shadow=0;dashed=0;image;image=img/lib/allied_telesis/computer_and_terminals/Personal_Computer_with_Server.svg;fontSize=18;" vertex="1" parent="1">
          <mxGeometry x="1490.8" y="363" width="62.400000000000006" height="62.400000000000006" as="geometry" />
        </mxCell>
        <mxCell id="RHi5AttprhNM431IDmTa-33" style="edgeStyle=orthogonalEdgeStyle;rounded=0;orthogonalLoop=1;jettySize=auto;html=1;fontSize=18;" edge="1" parent="1" source="RHi5AttprhNM431IDmTa-34" target="RHi5AttprhNM431IDmTa-35">
          <mxGeometry relative="1" as="geometry" />
        </mxCell>
        <mxCell id="RHi5AttprhNM431IDmTa-34" value="" style="verticalLabelPosition=bottom;sketch=0;aspect=fixed;html=1;verticalAlign=top;strokeColor=none;align=center;outlineConnect=0;shape=mxgraph.citrix.xenapp_services;fontSize=18;" vertex="1" parent="1">
          <mxGeometry x="670" y="390" width="76" height="90" as="geometry" />
        </mxCell>
        <mxCell id="RHi5AttprhNM431IDmTa-36" style="edgeStyle=orthogonalEdgeStyle;rounded=0;orthogonalLoop=1;jettySize=auto;html=1;dashed=1;fontSize=18;curved=1;startArrow=classic;startFill=1;exitX=0.13;exitY=1.057;exitDx=0;exitDy=0;exitPerimeter=0;" edge="1" parent="1" source="RHi5AttprhNM431IDmTa-35" target="RHi5AttprhNM431IDmTa-13">
          <mxGeometry relative="1" as="geometry">
            <Array as="points">
              <mxPoint x="750" y="480" />
              <mxPoint x="750" y="560" />
            </Array>
          </mxGeometry>
        </mxCell>
        <mxCell id="RHi5AttprhNM431IDmTa-35" value="&lt;div style=&quot;text-align: left; font-size: 18px;&quot;&gt;&lt;span style=&quot;font-size: 18px&quot;&gt;ZigBee终端-&lt;font color=&quot;#111111&quot; face=&quot;microsoft yahei, arial, helvetica, sans-serif&quot; style=&quot;font-size: 18px;&quot;&gt;&lt;span style=&quot;background-color: rgb(252, 252, 252); font-size: 18px;&quot;&gt;&lt;b style=&quot;font-size: 18px;&quot;&gt;65535&lt;/b&gt;&lt;/span&gt;&lt;/font&gt;&lt;/span&gt;&lt;/div&gt;" style="image;html=1;image=img/lib/clip_art/networking/Print_Server_Wireless_128x128.png;fontSize=18;" vertex="1" parent="1">
          <mxGeometry x="770" y="395" width="80" height="80" as="geometry" />
        </mxCell>
        <mxCell id="RHi5AttprhNM431IDmTa-38" value="" style="ellipse;shape=cloud;whiteSpace=wrap;html=1;fontSize=18;fillColor=none;align=left;" vertex="1" parent="1">
          <mxGeometry x="-60" y="-140" width="970" height="930" as="geometry" />
        </mxCell>
        <mxCell id="RHi5AttprhNM431IDmTa-39" value="&lt;span style=&quot;background-color: rgb(255 , 255 , 255)&quot;&gt;&lt;font style=&quot;font-size: 19px&quot;&gt;1.网状网拓扑结构的终端自组网络&lt;/font&gt;&lt;/span&gt;" style="text;html=1;align=center;verticalAlign=middle;resizable=0;points=[];autosize=1;fontSize=18;fillColor=#f8cecc;strokeColor=#b85450;" vertex="1" parent="1">
          <mxGeometry x="250" y="-90" width="300" height="30" as="geometry" />
        </mxCell>
        <mxCell id="RHi5AttprhNM431IDmTa-40" value="" style="ellipse;shape=cloud;whiteSpace=wrap;html=1;fontSize=18;fillColor=none;align=left;" vertex="1" parent="1">
          <mxGeometry x="1357" y="-10" width="330" height="525" as="geometry" />
        </mxCell>
        <mxCell id="RHi5AttprhNM431IDmTa-41" value="&lt;span style=&quot;background-color: rgb(255 , 255 , 255)&quot;&gt;&lt;font style=&quot;font-size: 19px&quot;&gt;终端用户&lt;/font&gt;&lt;/span&gt;" style="text;html=1;align=center;verticalAlign=middle;resizable=0;points=[];autosize=1;fontSize=18;fontColor=#000000;" vertex="1" parent="1">
          <mxGeometry x="1485" y="5" width="90" height="30" as="geometry" />
        </mxCell>
        <mxCell id="RHi5AttprhNM431IDmTa-42" value="" style="endArrow=classic;startArrow=classic;html=1;rounded=0;fontSize=19;fontColor=#000000;curved=1;strokeWidth=3;shape=flexArrow;strokeColor=#666666;fillColor=#f5f5f5;" edge="1" parent="1">
          <mxGeometry width="50" height="50" relative="1" as="geometry">
            <mxPoint x="833.5" y="117" as="sourcePoint" />
            <mxPoint x="1386.5" y="115" as="targetPoint" />
          </mxGeometry>
        </mxCell>
        <mxCell id="RHi5AttprhNM431IDmTa-43" value="&lt;span style=&quot;background-color: rgb(255 , 255 , 255)&quot;&gt;&lt;font style=&quot;font-size: 19px&quot; color=&quot;#000000&quot;&gt;数据传输&lt;/font&gt;&lt;/span&gt;" style="text;html=1;align=center;verticalAlign=middle;resizable=0;points=[];autosize=1;fontSize=18;fontColor=#3399FF;" vertex="1" parent="1">
          <mxGeometry x="1055" y="130" width="90" height="30" as="geometry" />
        </mxCell>
        <mxCell id="RHi5AttprhNM431IDmTa-44" value="&lt;span style=&quot;background-color: rgb(255 , 255 , 255)&quot;&gt;&lt;font style=&quot;font-size: 19px&quot; color=&quot;#000000&quot;&gt;3.设备反控&lt;/font&gt;&lt;/span&gt;" style="text;html=1;align=center;verticalAlign=middle;resizable=0;points=[];autosize=1;fontSize=18;fillColor=#f8cecc;strokeColor=#b85450;" vertex="1" parent="1">
          <mxGeometry x="1045" y="70" width="110" height="30" as="geometry" />
        </mxCell>
        <mxCell id="RHi5AttprhNM431IDmTa-46" value="" style="shape=curlyBracket;whiteSpace=wrap;html=1;rounded=1;flipH=1;labelBackgroundColor=#FFCCCC;fontSize=19;fontColor=#000000;fillColor=#FFE599;align=left;rotation=-90;strokeWidth=2;sketch=0;shadow=1;size=0.5;" vertex="1" parent="1">
          <mxGeometry x="835" y="-985" width="30" height="1707.5" as="geometry" />
        </mxCell>
        <mxCell id="RHi5AttprhNM431IDmTa-54" style="edgeStyle=orthogonalEdgeStyle;shape=flexArrow;curved=1;rounded=0;orthogonalLoop=1;jettySize=auto;html=1;fontFamily=Times New Roman;fontSize=19;fontColor=#000000;startArrow=classic;startFill=1;strokeWidth=3;" edge="1" parent="1" source="RHi5AttprhNM431IDmTa-52" target="RHi5AttprhNM431IDmTa-53">
          <mxGeometry relative="1" as="geometry" />
        </mxCell>
        <mxCell id="RHi5AttprhNM431IDmTa-52" value="&lt;h1&gt;运维自动化&lt;/h1&gt;&lt;p&gt;自动化质控&lt;/p&gt;&lt;p&gt;自动化反控&lt;/p&gt;&lt;p&gt;自动化数据填报&lt;/p&gt;&lt;p&gt;……&lt;/p&gt;" style="text;html=1;spacing=0;spacingTop=0;whiteSpace=wrap;overflow=hidden;rounded=0;labelBackgroundColor=none;fontSize=19;align=left;fontFamily=Times New Roman;verticalAlign=top;strokeWidth=1;" vertex="1" parent="1">
          <mxGeometry x="424" y="-390" width="320" height="260" as="geometry" />
        </mxCell>
        <mxCell id="RHi5AttprhNM431IDmTa-53" value="&lt;h1&gt;监测自动化&lt;/h1&gt;&lt;p&gt;大数据预警&lt;/p&gt;&lt;p&gt;污染源锁定&lt;/p&gt;&lt;p&gt;实时报表&lt;/p&gt;&lt;p&gt;……&lt;/p&gt;" style="text;html=1;spacing=0;spacingTop=0;whiteSpace=wrap;overflow=hidden;rounded=0;labelBackgroundColor=none;fontSize=19;align=left;fontFamily=Times New Roman;verticalAlign=top;strokeWidth=1;" vertex="1" parent="1">
          <mxGeometry x="956" y="-390" width="320" height="260" as="geometry" />
        </mxCell>
      </root>
    </mxGraphModel>
  </diagram>
</mxfile>
